# xmcd
#
# Track frame offsets:
#  150
#  14891
#  30426
#  44956
#  57272
#  69247
#  85674
#  97746
#  114729
#  128769
#
# Disc length: 1926 seconds
#
# Revision: 0
# Processed by: cddbd v1.4PL0 Copyright (c) Steve Scherf et al.
# Submitted via: AltoMP3_Maker 3.0
#
DISCID=8107840a
DTITLE=Kenny Wier - The House of Blue Nights
DYEAR=1900
DGENRE=
TTITLE0=If Her Heart Could Dance
TTITLE1=Amazing Grace
TTITLE2=The House Of Blue Nights
TTITLE3=The Way You See It Now
TTITLE4=These Matters Of The Heart
TTITLE5=Blue Texas Moon 
TTITLE6=My Favorite Blondes
TTITLE7=Little White Cross
TTITLE8=Bad Love
TTITLE9=Reasons To Let Go
EXTD=
EXTT0=
EXTT1=
EXTT2=
EXTT3=
EXTT4=
EXTT5=
EXTT6=
EXTT7=
EXTT8=
EXTT9=
PLAYORDER=
